<svg width="1420" height="480" viewBox="0 0 1420 480" fill="none" xmlns="http://www.w3.org/2000/svg">
  <g transform="translate(40, 60) scale(0.351562)"><path d="M179.938 384.945C179.375 361.544 182.318 341.137 187.68 318.505C201.884 258.599 231.818 203.57 274.391 159.095C284.622 148.339 296.459 136.615 307.863 127.137C369.565 75.859 446.672 46.7366 526.87 44.4215C555.565 43.7583 583.17 45.7126 611.28 51.6295C695.975 69.4585 772.18 120.407 821.91 191.089C857.37 241.703 879.955 308.551 881.135 370.466C881.36 388.19 881.405 405.915 881.265 423.641L881.34 813.135C881.31 856.605 880.66 902.09 881.47 945.385C880.15 946.85 880.12 947.095 877.73 947.175C871.46 947.385 865.165 946.96 858.885 946.975C843.91 947.46 827.35 946.83 812.29 946.77L739.54 947.09C720.56 947.25 701.575 947.255 682.59 947.105C676.805 947.045 662.48 947.185 657.305 946.415C655.92 943.745 655.865 920.935 655.15 914.89C650.835 878.45 638.28 843.47 618.44 812.605C558.955 720.485 452.338 681.97 382.315 600.31C361.292 575.795 346.655 552.935 335.216 522.83C317.041 476.149 314.789 424.774 328.81 376.684C336.515 349.433 347.124 328.073 362.41 304.546C388.397 263.91 423.27 229.704 464.402 204.509C469.824 201.152 476.617 197.603 482.266 194.438C488.218 191.433 493.552 188.4 499.34 185.089C501.56 185.827 502.06 185.848 503.45 187.655C497.107 191.643 491.155 195.372 485.085 199.785C432.174 243.156 390.989 294.101 384.228 364.523C373.777 473.385 454.256 548.1 530.905 610.585L577.435 649.175C604.77 671.965 630.91 694.415 653.815 721.16C698.22 772.805 725.885 839.36 724.48 908.005C724.43 910.515 724.56 920.895 725.23 921.305C727.17 922.495 759.675 921.905 762.495 921.885L822.445 921.86C828.615 921.82 847.58 921.355 852.495 922.365C854.305 921.88 854.61 921.9 855.96 920.54C857.25 917.71 856.405 811.89 856.41 798.99L855.985 368.45C855.385 362.822 855.215 356.796 854.595 350.94C851.31 320.024 844.595 294.221 832.58 265.491C799.945 186.284 736.6 123.686 657.005 91.9945C576.21 60.223 486.147 61.5955 406.358 95.8145C395.97 100.507 385.604 105.121 375.608 110.62C371.503 113 367.412 115.406 363.335 117.837C276.975 172.314 215.51 259.73 205.407 362.641C203.248 384.628 204.487 411.682 204.544 434.062L204.44 914.46C204.428 919.78 204.924 940.005 203.989 943.72C201.486 944.865 181.88 944.46 180.311 943.26C178.258 937.64 179.415 850.05 179.401 836.24L179.425 425.238C179.449 414.102 178.968 395.758 179.938 384.945Z" fill="#D6AE72" /><path d="M179.938 384.945C181.398 402.186 180.855 420.793 181.272 438.435C183.018 432.342 180.148 399.793 181.764 396.496C182.151 412.624 181.852 428.342 181.868 444.452C182.074 478.497 182.058 512.545 181.823 546.59L181.984 817.975C182.05 857.365 181.341 898.22 182.456 937.54C181.645 939.63 181.516 939.015 182.07 940.725C184.854 942.875 194.119 940.665 198.6 941.515C200.883 942.2 202.008 942.395 203.989 943.72C201.486 944.865 181.88 944.46 180.311 943.26C178.258 937.64 179.415 850.05 179.401 836.24L179.425 425.238C179.449 414.102 178.968 395.758 179.938 384.945Z" fill="#D6AE72" /><path d="M855.985 368.45C858.04 375.478 858.605 382.09 858.675 389.427C858.93 416.607 858.82 443.929 858.84 471.108L858.77 888.11C858.795 896.595 859.05 905.085 859.025 913.57C859.015 916.63 858.555 920.805 855.79 922.595C854.065 922.77 854.14 922.83 852.495 922.365C854.305 921.88 854.61 921.9 855.96 920.54C857.25 917.71 856.405 811.89 856.41 798.99L855.985 368.45Z" fill="#D6AE72" /><path d="M499.34 185.089C501.56 185.827 502.06 185.848 503.45 187.655C497.107 191.643 491.155 195.372 485.085 199.785L482.87 199.648L482.834 199.453C481.427 198.532 478.094 203.109 475.491 203.19C475.058 200.829 483.211 197.732 484.178 195.715L482.429 195.958L482.266 194.438C488.218 191.433 493.552 188.4 499.34 185.089Z" fill="#D6AE72" /><path d="M482.429 195.958L484.178 195.715C483.211 197.732 475.058 200.829 475.491 203.19C478.094 203.109 481.427 198.532 482.834 199.453L482.87 199.648C480.617 201.291 473.96 206.746 472.59 207.641C471.001 208.225 470.539 209.473 469.305 210.756C466.863 211.145 463.623 211.156 462.602 208.472C463.559 206.723 467.499 204.895 469.489 203.738L469.919 203.742C474.631 200.465 477.32 200.223 482.429 195.958Z" fill="#D6AE72" /><path d="M363.335 117.837C361.312 117.819 360.174 118.121 358.903 116.441C359.689 113.487 368.114 109.972 370.677 108.219C372.472 106.991 373.707 106.911 375.851 106.716C376.235 108.676 376.141 108.631 375.608 110.62C371.503 113 367.412 115.406 363.335 117.837Z" fill="#D6AE72" /><path d="M182.456 937.54L183.736 937.085C184.279 933.26 184.045 929.71 184.471 925.825C184.624 930.58 184.371 934.125 184.38 938.61C187.796 938.6 200.799 937.94 203.089 939.48C202.442 941.365 200.429 941.265 198.6 941.515C194.119 940.665 184.854 942.875 182.07 940.725C181.516 939.015 181.645 939.63 182.456 937.54Z" fill="#D6AE72" /><path d="M858.885 946.975C867.665 944.7 871.905 944.06 881.47 945.385C880.15 946.85 880.12 947.095 877.73 947.175C871.46 947.385 865.165 946.96 858.885 946.975Z" fill="#D6AE72" /><path d="M391.906 309.279C394.901 311.841 393.1 316.576 392.186 319.858L391.59 319.878L391.053 319.273C390.734 316.29 390.556 312 391.906 309.279Z" fill="#D6AE72" /><path d="M402.528 287.168C406.101 289.294 404.106 291.693 402.643 294.865C401.332 294.593 401.914 294.849 400.96 293.924C400.459 291.115 401.045 289.541 402.528 287.168Z" fill="#D6AE72" /><path d="M399.148 293.193C402.065 295.581 400.387 298.888 399.478 301.898L398.63 302.065L397.99 301.517C397.393 298.199 397.854 296.288 399.148 293.193Z" fill="#D6AE72" /><path d="M230.395 255.656C234.217 257.536 232.155 260.811 230.881 263.737C230.163 263.829 230.572 263.872 229.729 263.296C229.037 260.562 229.196 258.202 230.395 255.656Z" fill="#D6AE72" /><path d="M233.652 249.072C235.097 249.552 235.006 249.492 236.029 250.619C236.425 252.244 235.484 254.201 234.899 255.884L234.186 256.463L233.323 256.341C232.325 254.138 233.026 251.294 233.652 249.072Z" fill="#D6AE72" /><path d="M394.904 301.61C396.72 302.41 395.988 301.83 397.179 303.418C397.564 305.504 396.789 307.095 396.125 309.174C395.415 309.586 395.844 309.464 394.793 309.309C393.951 307.044 394.468 303.953 394.904 301.61Z" fill="#D6AE72" /><path d="M419.15 86.227C420.572 86.122 420.098 86.136 421.545 86.5165L421.604 87.1535C419.626 88.694 419.231 88.5895 416.631 88.9445C415.13 88.751 415.389 88.74 413.925 88.1665L413.79 87.5295C415.662 86.233 416.771 86.4035 419.15 86.227Z" fill="#D6AE72" /><path d="M405.511 281.573C407.181 282.149 406.482 281.692 407.676 283.016C408.011 284.861 407.009 286.475 406.219 288.25C405.981 288.281 405.345 288.191 405.073 288.163C403.607 285.729 404.608 284.076 405.511 281.573Z" fill="#D6AE72" /><path d="M226.582 263.508C228.08 263.908 227.992 263.839 229.104 264.912C229.523 266.601 228.407 268.641 227.728 270.367L226.861 270.685C225.488 268.751 226.248 265.92 226.582 263.508Z" fill="#D6AE72" /><path d="M403.884 92.7095L404.65 94.031C403.62 97.0045 399.106 95.6165 396.904 94.7885C398.925 93.144 401.209 93.1425 403.884 92.7095Z" fill="#D6AE72" /><path d="M395.953 96.269L396.607 97.645C394.99 99.916 391.595 99.4925 389.432 98.183C391.721 96.6415 393.207 96.6875 395.953 96.269Z" fill="#D6AE72" /><path d="M388.119 99.6925L389.487 100.884L389.299 101.796C387.518 102.784 384.861 102.743 382.845 102.543L383.15 101.299C384.36 100.212 386.43 100.028 388.119 99.6925Z" fill="#D6AE72" /><path d="M375.862 105.156C378.104 103.404 379.758 103.497 382.546 103.275L382.333 104.976C380.263 106.54 378.071 106.598 375.862 105.156Z" fill="#D6AE72" /><path d="M660.09 940.305C661.925 941.285 663.135 942.785 662.27 944.83C660.14 944.775 660.36 945.135 659.1 944.065C658.87 942.59 659.47 941.7 660.09 940.305Z" fill="#D6AE72" /><path d="M672.505 359.308C672.65 356.554 672.215 351.15 675.885 351.093C678.275 353.031 677.94 356.22 678.11 359.113C678.545 360.978 678.835 363.109 679.225 364.693C688.39 401.587 711.42 437.75 750.925 445.905C751.64 446.051 751.54 446.652 751.66 447.365C749.62 450.123 738.72 451.768 734.85 453.615C708.215 466.32 694.075 488.478 684.255 515.435C682.405 520.515 677.245 542.225 675.025 544.845C673.075 544.91 672.99 541.935 672.705 539.935C670.645 525.275 666.32 511.02 659.895 497.677C649.46 476.322 633.37 460.383 611.115 451.849C607.305 450.388 599.64 449.393 597.22 447.494C598.27 445.376 607.535 443.492 610.275 442.522C639.255 432.268 659.075 406.738 667.87 377.956C669.805 371.633 671.995 366.004 672.505 359.308Z" fill="#D6AE72" /><path d="M672.505 359.308C672.65 356.554 672.215 351.15 675.885 351.093C678.275 353.031 677.94 356.22 678.11 359.113L676.91 356.224C675.41 355.046 676.19 355.184 674.625 355.302C673.07 356.545 673.05 357.378 672.505 359.308Z" fill="#D6AE72" /><path d="M736.435 446.502C739.745 446.059 741.38 445.551 744.355 447.228L744.365 448.059C742.93 449.224 741.98 449.268 740.18 449.674C735.775 450.064 732.66 455.562 727.905 452.784C727.515 449.734 732.81 452.165 734.575 447.689C734.865 446.955 735.495 446.918 736.435 446.502Z" fill="#D6AE72" /><path d="M736.435 446.502C739.745 446.059 741.38 445.551 744.355 447.228L744.365 448.059C742.93 449.224 741.98 449.268 740.18 449.674C739.81 449.645 739.445 449.605 739.075 449.556C736.87 449.266 737.13 449.572 736.14 448.262L736.435 446.502Z" fill="#D6AE72" /><path d="M675.15 359.75C678.09 361.96 677.255 372.325 676.3 375.783C672.67 371.451 673.185 364.725 675.15 359.75Z" fill="#D6AE72" /><path d="M674.375 522.6C675.65 523.035 675.21 522.815 676.255 523.685C678.265 528.39 677.005 532.865 675.765 537.605L675.325 537.705L674.545 536.81C673.525 532.62 673.46 526.83 674.375 522.6Z" fill="#D6AE72" /><path d="M604.295 446.299C607.235 445.983 612.84 445.485 614.755 448.166L614.43 449.296C611.455 449.807 606.375 449.492 604.045 447.457L604.295 446.299Z" fill="#D6AE72" /><path d="M692.985 485.065C694.475 485.404 694 485.117 695.06 486.134C695.435 489.147 691.65 492.978 690.41 496.655C687.505 494.464 688.875 491.901 691.515 490.37C692.22 489.96 692.74 486.163 692.985 485.065Z" fill="#D6AE72" /><path d="M678.93 512.645C682.97 513.975 680.77 520.315 680.005 523.25L679.31 523.505L678.675 522.725C678.125 519.595 678.23 515.74 678.93 512.645Z" fill="#D6AE72" /><path d="M670.375 512.55C671.925 513.015 671.325 512.59 672.295 513.8C672.82 516.545 673.165 521.095 672.235 523.75C669.585 521.93 669.37 515.415 670.375 512.55Z" fill="#D6AE72" /><path d="M724.745 437.946C727.185 438.173 729.845 438.9 729.91 441.632C727.665 441.622 725.925 441.871 724.155 440.707C723.93 438.926 723.87 439.832 724.745 437.946Z" fill="#D6AE72" /><path d="M731.435 441.992C734.055 442.211 735.565 442.307 737.235 444.249L736.87 445.173C734.9 445.122 732.43 445.328 730.835 444.349C730.515 442.823 730.455 443.602 731.435 441.992Z" fill="#D6AE72" /><path d="M682.655 505.185C685.905 506.99 684.195 510.39 683.3 513.225L682.4 513.09C681.435 510.575 682.105 507.755 682.655 505.185Z" fill="#D6AE72" /><path d="M507.015 180.801C508.185 181.908 509.16 182.654 509.915 184.079C509.35 184.39 503.645 187.586 503.45 187.655C502.06 185.848 501.56 185.827 499.34 185.089L507.015 180.801Z" fill="#D6AE72" /><path d="M513.925 177.549C515.26 178.449 515.97 178.848 517.155 179.949C514.89 181.238 512.095 182.733 509.915 184.079C509.16 182.654 508.185 181.908 507.015 180.801C509.31 179.697 511.615 178.613 513.925 177.549Z" fill="#D6AE72" /><path d="M513.925 177.549C516.195 176.314 517.465 175.368 520.03 175.168L521.195 175.576C521.175 177.596 518.735 178.819 517.155 179.949C515.97 178.848 515.26 178.449 513.925 177.549Z" fill="#D6AE72" /></g>
  <g transform="translate(470, 155.50) scale(0.237179)"><path fill-rule="evenodd" clip-rule="evenodd" d="M 190.0 7.3 L 150.0 17.8 L 130.0 26.0 L 110.0 36.4 L 80.0 58.1 L 67.0 70.0 L 57.6 80.0 L 37.4 110.0 L 25.6 140.0 L 17.4 180.0 L 16.9 220.0 L 26.1 260.0 L 45.9 300.0 L 68.4 330.0 L 90.0 351.5 L 120.0 374.4 L 150.0 393.0 L 180.0 408.3 L 240.0 442.4 L 250.0 446.7 L 300.0 477.5 L 340.1 510.0 L 350.0 521.6 L 362.4 540.0 L 373.3 570.0 L 376.4 600.0 L 375.9 620.0 L 372.9 640.0 L 361.8 670.0 L 342.0 700.0 L 330.0 712.0 L 300.0 730.9 L 270.0 742.8 L 230.0 749.0 L 210.0 749.2 L 170.0 744.1 L 140.0 732.9 L 110.0 714.3 L 84.0 690.0 L 66.6 670.0 L 47.4 640.0 L 43.7 630.0 L 37.4 620.0 L 16.3 560.0 L 14.9 550.0 L 10.0 542.5 L 4.6 550.0 L 4.3 560.0 L 6.4 700.0 L 7.8 710.0 L 23.0 720.0 L 70.0 742.7 L 100.0 753.2 L 140.0 762.7 L 150.0 763.8 L 210.0 768.4 L 250.0 767.9 L 290.0 763.6 L 320.0 754.6 L 350.0 742.5 L 380.0 724.8 L 410.0 702.2 L 421.8 690.0 L 444.1 660.0 L 463.5 620.0 L 473.4 580.0 L 474.5 550.0 L 472.9 520.0 L 464.4 490.0 L 455.5 470.0 L 444.4 450.0 L 427.3 430.0 L 406.4 410.0 L 390.0 396.5 L 330.0 356.9 L 210.0 293.1 L 180.0 273.4 L 163.1 260.0 L 140.0 237.9 L 125.4 220.0 L 119.5 210.0 L 108.6 180.0 L 106.0 160.0 L 107.7 130.0 L 116.2 100.0 L 126.1 80.0 L 143.5 60.0 L 160.0 45.3 L 170.0 38.4 L 200.0 26.5 L 230.0 22.1 L 260.0 21.5 L 300.0 26.1 L 330.0 37.9 L 348.6 50.0 L 360.0 58.1 L 380.6 80.0 L 401.1 110.0 L 411.8 130.0 L 423.4 160.0 L 428.3 180.0 L 434.7 190.0 L 440.0 193.6 L 442.8 190.0 L 442.8 180.0 L 437.1 60.0 L 436.1 50.0 L 430.0 44.9 L 420.0 42.8 L 410.0 37.1 L 390.0 28.7 L 370.0 22.4 L 360.0 17.3 L 320.0 7.0 L 290.0 3.3 L 250.0 1.9 L 220.0 3.2 L 190.0 7.3 Z M 1040.0 5.3 L 1033.6 10.0 L 1027.3 20.0 L 1021.0 40.0 L 998.2 100.0 L 992.7 120.0 L 975.9 160.0 L 962.7 200.0 L 957.8 210.0 L 902.5 360.0 L 897.4 370.0 L 883.2 410.0 L 867.0 450.0 L 860.9 470.0 L 848.5 500.0 L 831.0 550.0 L 825.9 560.0 L 811.8 600.0 L 806.8 610.0 L 793.6 650.0 L 772.9 700.0 L 760.0 718.6 L 748.2 730.0 L 730.0 741.1 L 700.0 747.4 L 697.4 750.0 L 700.0 754.0 L 710.0 756.5 L 720.0 757.0 L 820.0 756.2 L 840.0 753.1 L 842.2 750.0 L 840.0 747.9 L 820.0 744.4 L 812.9 740.0 L 801.9 730.0 L 795.6 720.0 L 795.7 710.0 L 797.3 700.0 L 807.1 670.0 L 823.6 630.0 L 848.5 560.0 L 857.7 540.0 L 860.0 537.7 L 870.0 535.8 L 1040.0 536.5 L 1120.0 536.2 L 1130.0 537.7 L 1132.3 540.0 L 1141.1 560.0 L 1147.5 580.0 L 1153.0 590.0 L 1166.9 630.0 L 1171.8 640.0 L 1177.5 660.0 L 1182.5 670.0 L 1193.2 700.0 L 1194.6 710.0 L 1194.5 720.0 L 1190.0 730.4 L 1178.8 740.0 L 1170.0 744.2 L 1150.0 747.6 L 1147.5 750.0 L 1150.0 753.3 L 1160.0 756.3 L 1170.0 756.6 L 1360.0 756.2 L 1370.0 755.5 L 1374.3 750.0 L 1370.0 746.2 L 1350.0 742.9 L 1330.0 730.2 L 1320.0 718.4 L 1308.6 700.0 L 1301.9 680.0 L 1288.7 650.0 L 1281.9 630.0 L 1276.7 620.0 L 1262.2 580.0 L 1256.6 570.0 L 1242.1 530.0 L 1236.9 520.0 L 1223.6 480.0 L 1218.8 470.0 L 1213.0 450.0 L 1207.7 440.0 L 1196.1 410.0 L 1182.6 370.0 L 1177.2 360.0 L 1162.5 320.0 L 1157.3 310.0 L 1143.7 270.0 L 1127.2 230.0 L 1112.8 190.0 L 1107.5 180.0 L 1095.7 150.0 L 1093.2 140.0 L 1087.9 130.0 L 1082.1 110.0 L 1077.2 100.0 L 1071.2 80.0 L 1052.5 30.0 L 1047.1 20.0 L 1044.5 10.0 L 1040.0 5.3 Z M 987.1 180.0 L 990.0 174.9 L 1000.0 176.2 L 1002.2 180.0 L 1007.1 200.0 L 1012.4 210.0 L 1017.9 230.0 L 1023.0 240.0 L 1036.4 280.0 L 1041.3 290.0 L 1047.2 310.0 L 1052.3 320.0 L 1066.8 360.0 L 1072.1 370.0 L 1077.6 390.0 L 1082.4 400.0 L 1088.2 420.0 L 1093.2 430.0 L 1106.6 470.0 L 1111.5 480.0 L 1117.2 500.0 L 1123.4 510.0 L 1120.0 518.8 L 1110.0 521.1 L 1000.0 521.4 L 880.0 522.2 L 868.8 520.0 L 866.5 510.0 L 872.1 500.0 L 907.7 400.0 L 912.9 390.0 L 919.1 370.0 L 942.8 310.0 L 966.4 240.0 L 977.6 210.0 L 982.8 200.0 L 987.1 180.0 Z M 1430.0 17.6 L 1428.1 20.0 L 1430.0 21.8 L 1450.0 26.5 L 1470.0 37.5 L 1482.0 50.0 L 1490.0 62.4 L 1503.7 90.0 L 1506.4 100.0 L 1511.5 110.0 L 1526.0 150.0 L 1538.2 180.0 L 1543.9 190.0 L 1546.9 200.0 L 1552.5 210.0 L 1577.0 280.0 L 1582.2 290.0 L 1597.3 330.0 L 1611.2 360.0 L 1618.2 380.0 L 1623.4 390.0 L 1637.7 430.0 L 1642.9 440.0 L 1654.1 470.0 L 1656.8 480.0 L 1662.2 490.0 L 1696.7 580.0 L 1714.3 620.0 L 1716.9 630.0 L 1721.9 640.0 L 1747.4 710.0 L 1752.4 720.0 L 1758.5 740.0 L 1763.5 750.0 L 1765.9 760.0 L 1770.0 764.6 L 1780.9 760.0 L 1787.1 740.0 L 1792.4 730.0 L 1807.2 690.0 L 1812.6 680.0 L 1827.4 640.0 L 1832.7 630.0 L 1839.0 610.0 L 1844.1 600.0 L 1846.5 590.0 L 1863.8 550.0 L 1877.6 510.0 L 1882.8 500.0 L 1897.3 460.0 L 1902.7 450.0 L 1928.3 380.0 L 1933.4 370.0 L 1947.4 330.0 L 1952.8 320.0 L 1966.6 280.0 L 1983.4 240.0 L 1986.1 230.0 L 2002.7 190.0 L 2009.3 170.0 L 2022.5 140.0 L 2028.3 120.0 L 2033.4 110.0 L 2048.2 70.0 L 2063.6 50.0 L 2080.0 35.3 L 2100.0 26.1 L 2110.0 24.8 L 2116.0 20.0 L 2110.0 13.7 L 1980.0 14.2 L 1971.7 20.0 L 1980.0 24.1 L 1990.0 24.7 L 2000.0 27.3 L 2015.4 40.0 L 2022.4 50.0 L 2024.1 60.0 L 2023.9 70.0 L 2021.8 80.0 L 2005.8 120.0 L 2003.3 130.0 L 1991.9 160.0 L 1986.8 170.0 L 1967.3 220.0 L 1961.8 240.0 L 1957.0 250.0 L 1931.8 320.0 L 1926.7 330.0 L 1912.5 370.0 L 1907.2 380.0 L 1892.5 420.0 L 1887.5 430.0 L 1881.4 450.0 L 1876.3 460.0 L 1862.5 500.0 L 1857.1 510.0 L 1842.7 550.0 L 1837.6 560.0 L 1831.4 580.0 L 1822.8 600.0 L 1820.0 603.3 L 1817.0 600.0 L 1792.7 540.0 L 1786.9 530.0 L 1784.2 520.0 L 1775.8 500.0 L 1773.0 490.0 L 1767.7 480.0 L 1761.5 460.0 L 1756.7 450.0 L 1742.5 410.0 L 1736.9 400.0 L 1722.3 360.0 L 1717.1 350.0 L 1693.2 280.0 L 1687.7 270.0 L 1676.1 240.0 L 1662.8 200.0 L 1657.5 190.0 L 1643.4 150.0 L 1638.0 140.0 L 1632.0 120.0 L 1626.9 110.0 L 1624.3 100.0 L 1616.3 80.0 L 1613.4 60.0 L 1614.7 50.0 L 1619.2 40.0 L 1630.0 29.6 L 1640.0 25.3 L 1660.0 23.8 L 1666.7 20.0 L 1660.0 15.0 L 1590.0 13.3 L 1450.0 13.5 L 1440.0 14.0 L 1430.0 17.6 Z M 2310.0 18.0 L 2308.5 20.0 L 2310.0 21.5 L 2330.0 24.9 L 2340.0 28.2 L 2350.0 35.9 L 2353.8 40.0 L 2363.2 60.0 L 2364.4 690.0 L 2362.9 710.0 L 2350.0 732.3 L 2339.0 740.0 L 2330.0 744.1 L 2310.0 745.9 L 2303.1 750.0 L 2310.0 756.2 L 2330.0 757.1 L 2780.0 756.9 L 2790.0 752.7 L 2792.3 750.0 L 2798.1 720.0 L 2802.0 710.0 L 2808.3 680.0 L 2822.2 630.0 L 2828.4 600.0 L 2833.3 590.0 L 2830.0 582.2 L 2820.0 589.0 L 2811.3 610.0 L 2793.6 640.0 L 2780.0 657.1 L 2758.2 680.0 L 2747.0 690.0 L 2730.0 702.2 L 2710.0 712.5 L 2680.0 724.0 L 2650.0 732.5 L 2630.0 735.5 L 2590.0 737.7 L 2480.0 737.3 L 2470.0 732.8 L 2468.2 730.0 L 2469.5 720.0 L 2469.3 490.0 L 2470.1 400.0 L 2472.5 390.0 L 2480.0 386.0 L 2560.0 385.6 L 2590.0 386.7 L 2620.0 397.3 L 2637.0 410.0 L 2654.3 430.0 L 2663.9 450.0 L 2670.0 479.9 L 2680.0 481.9 L 2681.5 480.0 L 2679.5 440.0 L 2678.5 300.0 L 2677.3 290.0 L 2670.0 281.5 L 2663.0 310.0 L 2650.0 328.9 L 2638.8 340.0 L 2620.0 353.8 L 2600.0 362.5 L 2590.0 364.9 L 2570.0 366.4 L 2480.0 366.7 L 2468.9 360.0 L 2470.3 40.0 L 2480.0 33.3 L 2610.0 33.9 L 2640.0 35.9 L 2670.0 46.0 L 2690.0 56.6 L 2700.0 64.6 L 2720.0 83.5 L 2734.4 100.0 L 2741.8 110.0 L 2753.4 130.0 L 2756.8 140.0 L 2763.5 150.0 L 2766.5 160.0 L 2770.0 164.2 L 2774.8 160.0 L 2773.8 140.0 L 2767.9 120.0 L 2752.9 30.0 L 2750.0 21.1 L 2740.0 13.4 L 2340.0 13.6 L 2320.0 14.7 L 2310.0 18.0 Z M 3050.0 19.1 L 3050.0 20.6 L 3060.0 24.6 L 3080.0 27.1 L 3097.1 40.0 L 3104.7 50.0 L 3108.7 70.0 L 3110.3 200.0 L 3109.5 390.0 L 3110.6 530.0 L 3108.8 640.0 L 3109.3 700.0 L 3104.3 720.0 L 3096.9 730.0 L 3090.0 736.5 L 3080.0 743.5 L 3060.0 745.9 L 3051.5 750.0 L 3060.0 755.5 L 3080.0 756.4 L 3550.0 756.2 L 3557.1 750.0 L 3563.6 730.0 L 3587.5 630.0 L 3594.5 610.0 L 3598.1 590.0 L 3590.0 586.4 L 3587.3 590.0 L 3584.0 600.0 L 3577.2 610.0 L 3573.3 620.0 L 3561.1 640.0 L 3544.8 660.0 L 3524.7 680.0 L 3510.0 692.4 L 3490.0 704.9 L 3480.0 710.6 L 3450.0 723.3 L 3420.0 732.2 L 3370.0 736.8 L 3230.0 737.2 L 3220.0 735.8 L 3215.9 730.0 L 3215.6 460.0 L 3215.3 400.0 L 3216.8 390.0 L 3220.0 387.0 L 3320.0 386.3 L 3350.0 387.7 L 3380.0 396.4 L 3400.0 411.4 L 3415.1 430.0 L 3421.2 440.0 L 3433.3 480.0 L 3440.0 483.8 L 3443.2 480.0 L 3442.3 440.0 L 3443.6 290.0 L 3443.1 280.0 L 3440.0 276.2 L 3434.3 280.0 L 3426.8 300.0 L 3424.5 310.0 L 3420.0 319.9 L 3413.3 330.0 L 3400.0 343.1 L 3389.9 350.0 L 3360.0 362.9 L 3330.0 366.4 L 3220.0 366.2 L 3215.4 360.0 L 3215.5 40.0 L 3220.0 33.8 L 3230.0 33.2 L 3360.0 33.6 L 3400.0 36.5 L 3440.0 47.7 L 3460.0 57.3 L 3470.0 64.6 L 3488.6 80.0 L 3500.0 92.0 L 3522.2 120.0 L 3533.8 140.0 L 3537.3 150.0 L 3550.0 164.8 L 3553.7 160.0 L 3552.3 150.0 L 3546.8 130.0 L 3541.7 90.0 L 3526.7 20.0 L 3520.0 13.8 L 3470.0 13.3 L 3080.0 13.5 L 3060.0 14.1 L 3050.0 19.1 Z" fill="#FFFFFF" /></g>
</svg>
